:SAMPLES-PER-SECOND 30
:FULLY-SPECIFIED
:DEGREES
162
root  49.539 38.1324 0.524419 -6.60059 -84.437 17.3115
RightUpLeg  -33.8449 -11.0114 -4.50324
RightLeg  6.38728 -21.3511 6.34742
RightFoot  14.5766 1.32857 -5.36528
RightToes  5.82063e-011 0 -3.6325e-017
Spine  64.0226 -5.08937 6.54695
Spine1  15.7692 -0.0963278 -3.34645
HEad  -12.4758 2.42137 -6.06106
LeftShoulder1  2.26857 -17.4817 -2.68949
LeftArm  -83.0925 -76.4005 30.2383
LeftForeArm  -22.5676 -0.941983 -1.91594
LeftHand  -0.244104 0.0205437 5.32207
RightShoulder  0.386494 6.16475 -5.02797
RightArm  -69.5458 76.7454 1.26721
RightForeArm  -60.0512 7.1655 2.84952
RightHand  -6.721 17.6273 -33.256
LeftUpLeg  -31.205 8.22091 -3.51811
LeftLeg  39.9079 4.70302 4.58365
LeftFoot  -11.3512 0.0771613 -3.77833
LeftToes  1.45487e-011 -6.19069e-011 1.65092e-011
163
root  50.4962 38.0198 0.927206 -14.6178 -83.9547 25.1847
RightUpLeg  -33.3141 -11.329 -6.00619
RightLeg  3.49945 -21.4724 6.46851
RightFoot  14.4853 0.177463 -0.247528
RightToes  5.82063e-011 0 -3.6325e-017
Spine  64.2955 -5.08997 5.64946
Spine1  15.845 -0.45115 -3.49135
HEad  -11.56 2.79393 -6.15891
LeftShoulder1  2.24833 -17.3513 -2.65525
LeftArm  -84.3171 -76.552 31.4539
LeftForeArm  -22.1882 -1.42157 -1.99701
LeftHand  -0.244104 0.0205437 5.32207
RightShoulder  0.424137 6.28576 -4.64376
RightArm  -69.1848 76.2736 0.897623
RightForeArm  -60.5222 7.43143 3.04851
RightHand  -6.74261 17.6956 -33.2618
LeftUpLeg  -30.6599 9.78477 -6.33939
LeftLeg  36.305 4.49637 3.90757
LeftFoot  -12.942 0.0764104 0.499077
LeftToes  1.45487e-011 -6.19069e-011 1.65092e-011
164
root  51.4702 37.9114 1.28922 -19.105 -83.4045 29.579
RightUpLeg  -32.4579 -12.165 -7.605
RightLeg  0.948135 -22.4412 7.05885
RightFoot  10.7351 -1.723 9.34105
RightToes  5.82063e-011 0 -3.6325e-017
Spine  64.3269 -5.1472 5.11428
Spine1  15.9527 -0.534301 -3.85807
HEad  -10.7335 2.68316 -5.77267
LeftShoulder1  2.0755 -17.1546 -1.82723
LeftArm  -88.1807 -76.8346 35.1635
LeftForeArm  -22.2924 -1.49804 -1.92897
LeftHand  -0.244104 0.0205437 5.32207
RightShoulder  0.432739 6.35811 -4.57328
RightArm  -70.3345 75.4074 -0.772796
RightForeArm  -61.6198 7.61062 3.00186
RightHand  -6.9373 17.9753 -33.775
LeftUpLeg  -31.9539 12.0903 -9.06683
LeftLeg  35.0834 3.71997 3.16654
LeftFoot  -11.8635 0.0892636 4.19552
LeftToes  1.45487e-011 -6.19069e-011 1.65092e-011
165
root  52.4087 37.82 1.61844 -21.2659 -83.4493 31.7725
RightUpLeg  -31.7753 -13.208 -8.86278
RightLeg  -0.83713 -23.8266 8.27644
RightFoot  5.77182 -2.63472 17.5223
RightToes  5.82063e-011 0 -3.6325e-017
Spine  63.9237 -4.69793 4.6551
Spine1  16.8757 -0.0487064 -3.81245
HEad  -10.4789 1.93775 -5.93465
LeftShoulder1  1.98531 -17.2097 -1.30166
LeftArm  -94.1654 -76.9076 40.8198
LeftForeArm  -22.4842 -1.52667 -1.65802
LeftHand  -0.244104 0.0205437 5.32207
RightShoulder  0.359154 6.02449 -5.34047
RightArm  -73.1916 74.5476 -3.40625
RightForeArm  -62.3969 7.59219 2.58445
RightHand  -6.95829 17.9199 -33.945
LeftUpLeg  -33.8455 14.487 -11.013
LeftLeg  35.1084 2.20634 2.03594
LeftFoot  -10.0137 -0.00710576 5.95218
LeftToes  1.45487e-011 -6.19069e-011 1.65092e-011
166
root  53.3367 37.8302 1.94127 -19.6861 -84.1905 30.2116
RightUpLeg  -33.7493 -16.348 -7.15326
RightLeg  3.3381 -21.4265 6.89739
RightFoot  2.40898 -2.16789 17.8777
RightToes  5.82063e-011 0 -3.6325e-017
Spine  63.2081 -3.76577 4.38968
Spine1  18.5978 0.583765 -2.69433
HEad  -10.9247 1.10568 -7.23812
LeftShoulder1  2.05481 -17.4268 -1.54616
LeftArm  -100.066 -76.5877 46.3691
LeftForeArm  -22.5777 -1.49686 -1.23166
LeftHand  -0.244104 0.0205437 5.32207
RightShoulder  0.196419 5.19664 -7.02721
RightArm  -77.0872 74.3049 -6.57376
RightForeArm  -62.4784 7.26577 1.99703
RightHand  -6.57081 17.2205 -33.1062
LeftUpLeg  -35.141 16.7143 -12.0935
LeftLeg  34.0905 0.562784 0.785687
LeftFoot  -8.33429 -0.144041 7.34717
LeftToes  1.45487e-011 -6.19069e-011 1.65092e-011
167
root  54.2855 38.0108 2.24544 -12.1814 -85.0745 22.686
RightUpLeg  -39.4891 -25.3898 1.35402
RightLeg  14.4656 -8.87386 1.39788
RightFoot  1.54076 -1.37394 12.2624
RightToes  5.82063e-011 0 -3.6325e-017
Spine  64.4251 -4.9398 5.2586
Spine1  17.0629 0.882382 -5.52798
HEad  -10.3528 1.88289 -6.43187
LeftShoulder1  1.49998 -16.4791 1.03916
LeftArm  -97.7359 -77.2404 42.5826
LeftForeArm  -22.4332 -1.21325 -0.896341
LeftHand  -0.244104 0.0205437 5.32207
RightShoulder  0.36667 5.8123 -5.08784
RightArm  -76.7728 74.5822 -6.98645
RightForeArm  -62.3863 6.78481 2.1293
RightHand  -6.14948 16.5163 -32.0628
LeftUpLeg  -35.6321 18.6319 -12.7078
LeftLeg  31.2507 -0.746475 -0.130643
LeftFoot  -6.13239 -0.374041 9.0084
LeftToes  1.45487e-011 -6.19069e-011 1.65092e-011
168
root  55.1732 38.1805 2.45053 -3.38937 -85.33 13.8514
RightUpLeg  -43.4558 -27.155 4.71415
RightLeg  27.237 -2.58312 -2.27163
RightFoot  1.37229 -0.880784 7.98227
RightToes  5.82063e-011 0 -3.6325e-017
Spine  64.6698 -5.08055 5.53812
Spine1  17.0811 0.806853 -5.49452
HEad  -10.9073 2.31438 -6.65727
LeftShoulder1  1.50139 -16.16 0.901973
LeftArm  -97.7106 -77.2835 42.2266
LeftForeArm  -22.2167 -1.24878 -0.777154
LeftHand  -0.244104 0.0205437 5.32207
RightShoulder  0.329007 5.91336 -5.60486
RightArm  -76.6991 74.8423 -6.80734
RightForeArm  -63.0546 6.50728 2.07601
RightHand  -6.12685 16.4974 -31.9725
LeftUpLeg  -36.0174 20.1133 -13.4339
LeftLeg  28.4613 -1.978 -0.8167
LeftFoot  -3.60357 -0.663596 10.1252
LeftToes  1.45487e-011 -6.19069e-011 1.65092e-011
169
root  55.9849 38.2808 2.54458 2.73845 -85.4557 7.93381
RightUpLeg  -43.5164 -23.6286 2.00715
RightLeg  39.0145 -3.2488 -3.06079
RightFoot  0.665316 -0.810393 7.74454
RightToes  5.82063e-011 0 -3.6325e-017
Spine  64.6341 -4.93725 5.51985
Spine1  16.9373 1.00018 -5.54287
HEad  -11.5837 2.33607 -6.50355
LeftShoulder1  1.60753 -16.2929 0.35255
LeftArm  -96.1039 -77.1933 40.5893
LeftForeArm  -21.8178 -1.82157 -0.855596
LeftHand  -0.244104 0.0205437 5.32207
RightShoulder  0.32674 6.08293 -5.70337
RightArm  -75.9659 74.9741 -6.05904
RightForeArm  -63.6638 6.2795 2.08138
RightHand  -6.39496 16.985 -32.6014
LeftUpLeg  -36.7825 21.4237 -14.3113
LeftLeg  26.2073 -3.34654 -1.44903
LeftFoot  -1.17499 -0.946893 10.6903
LeftToes  1.45487e-011 -6.19069e-011 1.65092e-011
